<svg preserveAspectRatio="none" overflow="visible" style="display: block;" width="34.8467" height="104.174" viewBox="0 0 34.8467 104.174" fill="none" xmlns="http://www.w3.org/2000/svg">
<path id="Vector" d="M25.872 97.814L24.7182 96.186L23.6084 94.5286L22.5378 92.842L21.5111 91.1309L20.5284 89.3953L19.5947 87.6353L18.7 85.846L17.8591 84.042L17.0573 82.2135L16.3093 80.3606L15.6053 78.4931L14.9502 76.6108L14.3489 74.7091L13.7916 72.7926L13.2831 70.8615L12.8284 68.9206L12.4227 66.9651L12.0658 64.9997L11.7627 63.0295L11.5084 61.0495L11.308 59.0646L11.1516 57.0749L11.0489 55.0851L11 53.0904V51.0909L11.0489 49.0962L11.1467 47.1064L11.2982 45.1166L11.4987 43.1317L11.748 41.1517L12.0511 39.1766L12.4031 37.2162L12.8089 35.2606L13.2587 33.3149L13.7622 31.3837L14.3147 29.4673L14.9209 27.5655L15.5711 25.6784L16.2702 23.8108L17.0182 21.9629L17.8151 20.1344L18.656 18.3255L19.5458 16.5362L20.4796 14.7762L21.4622 13.0357L22.484 11.3246L23.5498 9.63796L24.6596 7.98063L25.8133 6.34774" stroke="#F78E27" stroke-width="22"/>
</svg>
